<svg width="593" height="593" viewBox="0 0 593 593" fill="none" xmlns="http://www.w3.org/2000/svg">
<circle cx="296.5" cy="296.5" r="296.5" fill="#E064CC" fill-opacity="0.05"/>
<circle cx="296.5" cy="296.5" r="258.476" fill="#E064CC" fill-opacity="0.05"/>
<circle cx="293.784" cy="296.5" r="212.303" fill="#E064CC" fill-opacity="0.05"/>
<rect x="174.731" y="104.115" width="256.212" height="354.895" rx="3.62137" fill="white"/>
<rect x="200" y="194" width="206" height="36" rx="1.81069" fill="#F3F3F3"/>
<rect x="200" y="245" width="206" height="36" rx="1.81069" fill="#F3F3F3"/>
<rect x="200" y="143" width="206" height="36" rx="1.81069" fill="#F3F3F3"/>
<rect x="200" y="347" width="206" height="36" rx="1.81069" fill="#F3F3F3"/>
<rect x="200" y="398" width="206" height="36" rx="1.81069" fill="#F3F3F3"/>
<rect x="200" y="296" width="206" height="36" rx="1.81069" fill="#F3F3F3"/>
<rect x="197" y="240.35" width="52.5099" height="15.3908" rx="1.81069" fill="#FCEFFA"/>
<g filter="url(#filter0_d_181_240)">
<rect x="220" y="307" width="231.786" height="69" rx="2.67961" fill="white"/>
</g>
<rect x="230.049" y="320.398" width="44.8835" height="42.8738" rx="2.67961" fill="#66C085"/>
<rect x="283.641" y="320.398" width="152.738" height="11.3883" rx="1.33981" fill="#66C085" fill-opacity="0.11"/>
<rect x="283.641" y="339.155" width="38.8544" height="11.3883" rx="1.33981" fill="#66C085" fill-opacity="0.11"/>
<g clip-path="url(#clip0_181_240)">
<path d="M258.184 336.476H246.126C245.386 336.476 244.786 337.076 244.786 337.816V345.854C244.786 346.594 245.386 347.194 246.126 347.194H258.184C258.924 347.194 259.524 346.594 259.524 345.854V337.816C259.524 337.076 258.924 336.476 258.184 336.476Z" stroke="white" stroke-width="1.33981" stroke-linecap="round" stroke-linejoin="round"/>
<path d="M244.786 340.495H259.524" stroke="white" stroke-width="1.33981" stroke-linecap="round" stroke-linejoin="round"/>
</g>
<g filter="url(#filter1_d_181_240)">
<rect x="81.4809" y="238.105" width="313.249" height="93.2504" rx="3.62137" fill="white"/>
</g>
<rect x="95.061" y="256.212" width="60.658" height="57.942" rx="3.62137" fill="#FD377E"/>
<rect x="167.489" y="256.212" width="206.418" height="15.3908" rx="1.81069" fill="#FCEFFA"/>
<rect x="167.489" y="281.562" width="52.5099" height="15.3908" rx="1.81069" fill="#FCEFFA"/>
<g clip-path="url(#clip1_181_240)">
<path d="M133.086 277.94H116.789C115.789 277.94 114.979 278.751 114.979 279.751V290.615C114.979 291.615 115.789 292.426 116.789 292.426H133.086C134.086 292.426 134.896 291.615 134.896 290.615V279.751C134.896 278.751 134.086 277.94 133.086 277.94Z" stroke="white" stroke-width="1.81069" stroke-linecap="round" stroke-linejoin="round"/>
<path d="M114.979 283.373H134.896" stroke="white" stroke-width="1.81069" stroke-linecap="round" stroke-linejoin="round"/>
</g>
<g filter="url(#filter2_d_181_240)">
<rect x="81.4809" y="238.105" width="313.249" height="93.2504" rx="3.62137" fill="white"/>
</g>
<rect x="95.061" y="256.212" width="60.658" height="57.942" rx="3.62137" fill="#FD377E"/>
<rect x="167.489" y="256.212" width="206.418" height="15.3908" rx="1.81069" fill="#FCEFFA"/>
<rect x="167.489" y="281.562" width="52.5099" height="15.3908" rx="1.81069" fill="#FCEFFA"/>
<g clip-path="url(#clip2_181_240)">
<path d="M133.086 277.94H116.789C115.789 277.94 114.979 278.751 114.979 279.751V290.615C114.979 291.615 115.789 292.426 116.789 292.426H133.086C134.086 292.426 134.896 291.615 134.896 290.615V279.751C134.896 278.751 134.086 277.94 133.086 277.94Z" stroke="white" stroke-width="1.81069" stroke-linecap="round" stroke-linejoin="round"/>
<path d="M114.979 283.373H134.896" stroke="white" stroke-width="1.81069" stroke-linecap="round" stroke-linejoin="round"/>
</g>
<circle cx="385" cy="119" r="3" fill="#FD377E"/>
<circle cx="400" cy="119" r="3" fill="#66C085"/>
<circle cx="415" cy="119" r="3" fill="black"/>
<defs>
<filter id="filter0_d_181_240" x="193.204" y="282.883" width="285.379" height="122.592" filterUnits="userSpaceOnUse" color-interpolation-filters="sRGB">
<feFlood flood-opacity="0" result="BackgroundImageFix"/>
<feColorMatrix in="SourceAlpha" type="matrix" values="0 0 0 0 0 0 0 0 0 0 0 0 0 0 0 0 0 0 127 0" result="hardAlpha"/>
<feOffset dy="2.67961"/>
<feGaussianBlur stdDeviation="13.3981"/>
<feComposite in2="hardAlpha" operator="out"/>
<feColorMatrix type="matrix" values="0 0 0 0 0 0 0 0 0 0 0 0 0 0 0 0 0 0 0.25 0"/>
<feBlend mode="normal" in2="BackgroundImageFix" result="effect1_dropShadow_181_240"/>
<feBlend mode="normal" in="SourceGraphic" in2="effect1_dropShadow_181_240" result="shape"/>
</filter>
<filter id="filter1_d_181_240" x="45.2672" y="205.513" width="385.676" height="165.678" filterUnits="userSpaceOnUse" color-interpolation-filters="sRGB">
<feFlood flood-opacity="0" result="BackgroundImageFix"/>
<feColorMatrix in="SourceAlpha" type="matrix" values="0 0 0 0 0 0 0 0 0 0 0 0 0 0 0 0 0 0 127 0" result="hardAlpha"/>
<feOffset dy="3.62137"/>
<feGaussianBlur stdDeviation="18.1069"/>
<feComposite in2="hardAlpha" operator="out"/>
<feColorMatrix type="matrix" values="0 0 0 0 0 0 0 0 0 0 0 0 0 0 0 0 0 0 0.25 0"/>
<feBlend mode="normal" in2="BackgroundImageFix" result="effect1_dropShadow_181_240"/>
<feBlend mode="normal" in="SourceGraphic" in2="effect1_dropShadow_181_240" result="shape"/>
</filter>
<filter id="filter2_d_181_240" x="45.2672" y="205.513" width="385.676" height="165.678" filterUnits="userSpaceOnUse" color-interpolation-filters="sRGB">
<feFlood flood-opacity="0" result="BackgroundImageFix"/>
<feColorMatrix in="SourceAlpha" type="matrix" values="0 0 0 0 0 0 0 0 0 0 0 0 0 0 0 0 0 0 127 0" result="hardAlpha"/>
<feOffset dy="3.62137"/>
<feGaussianBlur stdDeviation="18.1069"/>
<feComposite in2="hardAlpha" operator="out"/>
<feColorMatrix type="matrix" values="0 0 0 0 0 0 0 0 0 0 0 0 0 0 0 0 0 0 0.25 0"/>
<feBlend mode="normal" in2="BackgroundImageFix" result="effect1_dropShadow_181_240"/>
<feBlend mode="normal" in="SourceGraphic" in2="effect1_dropShadow_181_240" result="shape"/>
</filter>
<clipPath id="clip0_181_240">
<rect width="16.0777" height="16.0777" fill="white" transform="translate(244.117 333.796)"/>
</clipPath>
<clipPath id="clip1_181_240">
<rect width="21.7282" height="21.7282" fill="white" transform="translate(114.073 274.319)"/>
</clipPath>
<clipPath id="clip2_181_240">
<rect width="21.7282" height="21.7282" fill="white" transform="translate(114.073 274.319)"/>
</clipPath>
</defs>
</svg>
